<svg xmlns="http://www.w3.org/2000/svg" viewBox="0 0 512 512" width="512" height="512">
  <defs>
    <radialGradient id="coreGlow" cx="50%" cy="50%" r="50%">
      <stop offset="0%" stop-color="#4EC9B0" stop-opacity="0.4"/>
      <stop offset="100%" stop-color="#4EC9B0" stop-opacity="0"/>
    </radialGradient>
    <radialGradient id="irisGrad" cx="50%" cy="50%" r="50%">
      <stop offset="0%" stop-color="#6EECD0"/>
      <stop offset="40%" stop-color="#4EC9B0"/>
      <stop offset="100%" stop-color="#2A8C72"/>
    </radialGradient>
    <linearGradient id="ringGrad" x1="0%" y1="0%" x2="100%" y2="100%">
      <stop offset="0%" stop-color="#4EC9B0" stop-opacity="0.9"/>
      <stop offset="50%" stop-color="#3DB8A0" stop-opacity="0.6"/>
      <stop offset="100%" stop-color="#4EC9B0" stop-opacity="0.9"/>
    </linearGradient>
  </defs>
  <circle cx="256" cy="256" r="240" fill="url(#coreGlow)"/>
  <path d="M46,256 Q256,80 466,256 Q256,432 46,256 Z" fill="none" stroke="#4EC9B0" stroke-width="2.5" opacity="0.5"/>
  <path d="M80,256 Q256,120 432,256 Q256,392 80,256 Z" fill="none" stroke="#4EC9B0" stroke-width="3" opacity="0.7"/>
  <ellipse cx="256" cy="256" rx="155" ry="155" fill="none" stroke="url(#ringGrad)" stroke-width="1.5" transform="rotate(-30, 256, 256)" opacity="0.4"/>
  <ellipse cx="256" cy="256" rx="170" ry="100" fill="none" stroke="#4EC9B0" stroke-width="1.2" transform="rotate(25, 256, 256)" opacity="0.35"/>
  <ellipse cx="256" cy="256" rx="140" ry="60" fill="none" stroke="#4EC9B0" stroke-width="1" transform="rotate(-55, 256, 256)" opacity="0.25"/>
  <circle cx="256" cy="256" r="90" fill="none" stroke="#4EC9B0" stroke-width="2.5" opacity="0.8"/>
  <circle cx="256" cy="256" r="75" fill="url(#irisGrad)" opacity="0.15"/>
  <circle cx="256" cy="256" r="40" fill="#4EC9B0" opacity="0.12"/>
  <text x="256" y="248" text-anchor="middle" dominant-baseline="central" font-family="'Segoe UI','SF Pro Display',Arial,sans-serif" font-size="110" font-weight="700" fill="#4EC9B0" letter-spacing="-4">Æ</text>
  <!-- Static orbital dots -->
  <circle cx="256" cy="101" r="4" fill="#4EC9B0" opacity="0.8"/>
  <circle cx="400" cy="180" r="3" fill="#4EC9B0" opacity="0.5"/>
  <circle cx="130" cy="350" r="2.5" fill="#6EECD0" opacity="0.6"/>
  <line x1="60" y1="256" x2="30" y2="256" stroke="#4EC9B0" stroke-width="1.5" opacity="0.3"/>
  <line x1="452" y1="256" x2="482" y2="256" stroke="#4EC9B0" stroke-width="1.5" opacity="0.3"/>
  <line x1="256" y1="95" x2="256" y2="70" stroke="#4EC9B0" stroke-width="1.5" opacity="0.2"/>
  <line x1="256" y1="417" x2="256" y2="442" stroke="#4EC9B0" stroke-width="1.5" opacity="0.2"/>
</svg>
